<svg width="237" height="44" viewBox="0 0 237 44" fill="none" xmlns="http://www.w3.org/2000/svg">
<path d="M10.008 34.288C8.184 34.288 6.52 33.872 5.016 33.04C3.544 32.208 2.376 31.056 1.512 29.584C0.68 28.112 0.264 26.48 0.264 24.688V0.111999H4.68V24.592C4.68 26.096 5.192 27.36 6.216 28.384C7.24 29.408 8.504 29.92 10.008 29.92C11.48 29.92 12.728 29.408 13.752 28.384C14.776 27.36 15.288 26.096 15.288 24.592V0.111999H19.704V24.688C19.704 26.48 19.272 28.112 18.408 29.584C17.576 31.056 16.408 32.208 14.904 33.04C13.432 33.872 11.8 34.288 10.008 34.288ZM39.0488 34.384C37.1608 34.384 35.3848 34 33.7208 33.232C32.0568 32.432 30.6168 31.344 29.4008 29.968V34H26.3288V0.111999H30.5528V12.256C31.7048 11.232 33.0008 10.432 34.4408 9.856C35.9128 9.28 37.4488 8.992 39.0488 8.992C41.3528 8.992 43.4648 9.568 45.3848 10.72C47.3368 11.84 48.8728 13.376 49.9928 15.328C51.1448 17.248 51.7208 19.36 51.7208 21.664C51.7208 23.968 51.1448 26.096 49.9928 28.048C48.8728 30 47.3368 31.552 45.3848 32.704C43.4648 33.824 41.3528 34.384 39.0488 34.384ZM39.0488 30.16C40.5848 30.16 41.9928 29.776 43.2728 29.008C44.5848 28.24 45.6088 27.216 46.3448 25.936C47.1128 24.624 47.4968 23.2 47.4968 21.664C47.4968 20.128 47.1128 18.72 46.3448 17.44C45.6088 16.128 44.5848 15.104 43.2728 14.368C41.9928 13.6 40.5848 13.216 39.0488 13.216C37.5128 13.216 36.0888 13.6 34.7768 14.368C33.4968 15.104 32.4728 16.128 31.7048 17.44C30.9368 18.72 30.5528 20.128 30.5528 21.664C30.5528 23.2 30.9368 24.624 31.7048 25.936C32.4728 27.216 33.4968 28.24 34.7768 29.008C36.0888 29.776 37.5128 30.16 39.0488 30.16ZM68.0753 34.384C65.7713 34.384 63.6433 33.824 61.6913 32.704C59.7393 31.552 58.1873 30 57.0353 28.048C55.9153 26.096 55.3553 23.968 55.3553 21.664C55.3553 19.36 55.9153 17.248 57.0353 15.328C58.1873 13.376 59.7393 11.84 61.6913 10.72C63.6433 9.568 65.7713 8.992 68.0753 8.992C70.3473 8.992 72.4433 9.536 74.3633 10.624C76.2833 11.712 77.8033 13.248 78.9233 15.232C80.0753 17.184 80.6512 19.424 80.6512 21.952C80.6512 22.528 80.6353 22.976 80.6033 23.296H59.7233C60.1073 25.28 61.0833 26.928 62.6513 28.24C64.2193 29.52 66.0273 30.16 68.0753 30.16C69.6113 30.16 71.0033 29.776 72.2513 29.008C73.5313 28.208 74.5233 27.12 75.2273 25.744H80.0753C79.2113 28.304 77.6913 30.384 75.5153 31.984C73.3393 33.584 70.8593 34.384 68.0753 34.384ZM76.1873 19.648C75.7393 17.792 74.7633 16.256 73.2593 15.04C71.7873 13.824 70.0593 13.216 68.0753 13.216C66.0913 13.216 64.3313 13.824 62.7953 15.04C61.2593 16.256 60.2673 17.792 59.8193 19.648H76.1873ZM85.9538 9.376H89.0258V14.176L99.5858 8.848V13.456L90.2738 18.304V34H85.9538V9.376ZM109.414 34.672C106.918 34.672 104.886 33.984 103.318 32.608C101.782 31.232 101.014 29.456 101.014 27.28V26.992H105.574V27.424C105.574 28.416 105.942 29.264 106.678 29.968C107.414 30.64 108.326 30.976 109.414 30.976C110.47 30.976 111.35 30.64 112.054 29.968C112.758 29.296 113.11 28.448 113.11 27.424C113.11 26.368 112.758 25.504 112.054 24.832C111.35 24.128 110.47 23.776 109.414 23.776C107.814 23.776 106.39 23.44 105.142 22.768C103.926 22.096 102.966 21.184 102.262 20.032C101.59 18.848 101.254 17.568 101.254 16.192C101.254 14.816 101.59 13.568 102.262 12.448C102.934 11.296 103.894 10.4 105.142 9.76C106.39 9.088 107.814 8.752 109.414 8.752C110.95 8.752 112.326 9.072 113.542 9.712C114.79 10.32 115.75 11.2 116.422 12.352C117.126 13.472 117.478 14.736 117.478 16.144V16.336H113.206V16C113.206 14.976 112.838 14.128 112.102 13.456C111.398 12.752 110.502 12.4 109.414 12.4C108.326 12.4 107.414 12.752 106.678 13.456C105.974 14.128 105.622 14.976 105.622 16C105.622 17.056 105.974 17.936 106.678 18.64C107.414 19.312 108.326 19.648 109.414 19.648C111.046 19.68 112.47 20.048 113.686 20.752C114.934 21.424 115.894 22.336 116.566 23.488C117.27 24.608 117.622 25.872 117.622 27.28C117.622 28.656 117.27 29.92 116.566 31.072C115.894 32.192 114.934 33.072 113.686 33.712C112.438 34.352 111.014 34.672 109.414 34.672ZM135.846 34.384C134.246 34.384 132.71 34.096 131.238 33.52C129.798 32.944 128.502 32.144 127.35 31.12V43.6H123.126V9.376H126.198V13.408C127.414 12.032 128.854 10.96 130.518 10.192C132.182 9.392 133.958 8.992 135.846 8.992C138.15 8.992 140.262 9.568 142.182 10.72C144.134 11.84 145.67 13.376 146.79 15.328C147.942 17.248 148.518 19.36 148.518 21.664C148.518 23.968 147.942 26.096 146.79 28.048C145.67 30 144.134 31.552 142.182 32.704C140.262 33.824 138.15 34.384 135.846 34.384ZM135.846 30.16C137.382 30.16 138.79 29.776 140.07 29.008C141.382 28.24 142.406 27.216 143.142 25.936C143.91 24.624 144.294 23.2 144.294 21.664C144.294 20.128 143.91 18.72 143.142 17.44C142.406 16.128 141.382 15.104 140.07 14.368C138.79 13.6 137.382 13.216 135.846 13.216C134.31 13.216 132.886 13.6 131.574 14.368C130.294 15.104 129.27 16.128 128.502 17.44C127.734 18.72 127.35 20.128 127.35 21.664C127.35 23.2 127.734 24.624 128.502 25.936C129.27 27.216 130.294 28.24 131.574 29.008C132.886 29.776 134.31 30.16 135.846 30.16ZM164.872 34.384C162.568 34.384 160.44 33.824 158.488 32.704C156.536 31.552 154.984 30 153.832 28.048C152.712 26.096 152.152 23.968 152.152 21.664C152.152 19.36 152.712 17.248 153.832 15.328C154.984 13.376 156.536 11.84 158.488 10.72C160.44 9.568 162.568 8.992 164.872 8.992C166.76 8.992 168.536 9.392 170.2 10.192C171.896 10.96 173.32 12.032 174.472 13.408V9.376H177.544V34H174.472V29.968C173.32 31.344 171.896 32.432 170.2 33.232C168.536 34 166.76 34.384 164.872 34.384ZM164.872 30.16C166.408 30.16 167.816 29.776 169.096 29.008C170.408 28.24 171.432 27.216 172.168 25.936C172.936 24.624 173.32 23.2 173.32 21.664C173.32 20.128 172.936 18.72 172.168 17.44C171.432 16.128 170.408 15.104 169.096 14.368C167.816 13.6 166.408 13.216 164.872 13.216C163.336 13.216 161.912 13.6 160.6 14.368C159.32 15.104 158.296 16.128 157.528 17.44C156.76 18.72 156.376 20.128 156.376 21.664C156.376 23.2 156.76 24.624 157.528 25.936C158.296 27.216 159.32 28.24 160.6 29.008C161.912 29.776 163.336 30.16 164.872 30.16ZM195.435 34.336C193.131 34.336 191.003 33.776 189.051 32.656C187.099 31.504 185.547 29.968 184.395 28.048C183.275 26.096 182.715 23.968 182.715 21.664C182.715 19.36 183.275 17.248 184.395 15.328C185.547 13.376 187.099 11.84 189.051 10.72C191.003 9.568 193.131 8.992 195.435 8.992C197.451 8.992 199.339 9.44 201.099 10.336C202.859 11.232 204.331 12.464 205.515 14.032C206.731 15.568 207.531 17.296 207.915 19.216H203.499C202.987 17.456 201.979 16.016 200.475 14.896C199.003 13.776 197.323 13.216 195.435 13.216C193.899 13.216 192.475 13.6 191.163 14.368C189.883 15.104 188.859 16.128 188.091 17.44C187.323 18.72 186.939 20.128 186.939 21.664C186.939 23.2 187.323 24.624 188.091 25.936C188.859 27.216 189.883 28.24 191.163 29.008C192.475 29.744 193.899 30.112 195.435 30.112C197.323 30.112 199.003 29.552 200.475 28.432C201.979 27.312 202.987 25.872 203.499 24.112H207.915C207.531 26.032 206.731 27.776 205.515 29.344C204.331 30.88 202.859 32.096 201.099 32.992C199.339 33.888 197.451 34.336 195.435 34.336ZM224.263 34.384C221.959 34.384 219.831 33.824 217.879 32.704C215.927 31.552 214.375 30 213.223 28.048C212.103 26.096 211.543 23.968 211.543 21.664C211.543 19.36 212.103 17.248 213.223 15.328C214.375 13.376 215.927 11.84 217.879 10.72C219.831 9.568 221.959 8.992 224.263 8.992C226.535 8.992 228.631 9.536 230.551 10.624C232.471 11.712 233.991 13.248 235.111 15.232C236.263 17.184 236.839 19.424 236.839 21.952C236.839 22.528 236.823 22.976 236.791 23.296H215.911C216.295 25.28 217.271 26.928 218.839 28.24C220.407 29.52 222.215 30.16 224.263 30.16C225.799 30.16 227.191 29.776 228.439 29.008C229.719 28.208 230.711 27.12 231.415 25.744H236.263C235.399 28.304 233.879 30.384 231.703 31.984C229.527 33.584 227.047 34.384 224.263 34.384ZM232.375 19.648C231.927 17.792 230.951 16.256 229.447 15.04C227.975 13.824 226.247 13.216 224.263 13.216C222.279 13.216 220.519 13.824 218.983 15.04C217.447 16.256 216.455 17.792 216.007 19.648H232.375Z" fill="black"/>
</svg>
